<?xml version="1.0" encoding="UTF-8" standalone="no"?>
<!DOCTYPE svg PUBLIC "-//W3C//DTD SVG 1.1//EN"
 "http://www.w3.org/Graphics/SVG/1.1/DTD/svg11.dtd">
<!-- Generated by graphviz version 2.38.0 (20140413.2041)
 -->
<!-- Title: dependency Pages: 1 -->
<svg width="1622pt" height="854pt"
 viewBox="0.00 0.00 1622.19 854.00" xmlns="http://www.w3.org/2000/svg" xmlns:xlink="http://www.w3.org/1999/xlink">
<g id="graph0" class="graph" transform="scale(1 1) rotate(0) translate(4 850)">
<title>dependency</title>
<polygon fill="white" stroke="none" points="-4,4 -4,-850 1618.19,-850 1618.19,4 -4,4"/>
<g id="clust5" class="cluster"><title>cluster_13</title>
<polygon fill="none" stroke="#ccffcc" points="8,-44 8,-710 1396,-710 1396,-44 8,-44"/>
<text text-anchor="middle" x="702" y="-54" font-family="Times,serif" font-size="30.00">simulate_data_collection</text>
</g>
<!-- v_1_58 -->
<g id="node1" class="node"><title>v_1_58</title>
<path fill="#ffffcc" stroke="black" d="M1311.1,-774C1311.1,-774 922.899,-774 922.899,-774 916.899,-774 910.899,-768 910.899,-762 910.899,-762 910.899,-750 910.899,-750 910.899,-744 916.899,-738 922.899,-738 922.899,-738 1311.1,-738 1311.1,-738 1317.1,-738 1323.1,-744 1323.1,-750 1323.1,-750 1323.1,-762 1323.1,-762 1323.1,-768 1317.1,-774 1311.1,-774"/>
<text text-anchor="middle" x="1117" y="-751.8" font-family="Times,serif" font-size="14.00">309 options = &lt;Values at 0x7f2aa3eb7470 ... ple_score_cutoff&#39;: 12.0}&gt;</text>
</g>
<!-- v_1_57 -->
<g id="node5" class="node"><title>v_1_57</title>
<polygon fill="#ccffcc" stroke="black" points="1068.54,-846 653.459,-846 653.459,-810 1068.54,-810 1068.54,-846"/>
<text text-anchor="middle" x="861" y="-823.8" font-family="Times,serif" font-size="14.00">309 parse_args = (&lt;Values at 0x7f2aa3eb747 ... cutoff&#39;: 12.0}&gt;, [&#39;q55&#39;])</text>
</g>
<!-- v_1_58&#45;&gt;v_1_57 -->
<g id="edge8" class="edge"><title>v_1_58&#45;&gt;v_1_57</title>
<path fill="none" stroke="black" d="M1054.7,-774.034C1018.16,-784.028 971.806,-796.702 933.609,-807.146"/>
<polygon fill="black" stroke="black" points="932.299,-803.876 923.577,-809.889 934.146,-810.628 932.299,-803.876"/>
</g>
<!-- v_1_59 -->
<g id="node2" class="node"><title>v_1_59</title>
<path fill="#ffffcc" stroke="black" d="M650.843,-774C650.843,-774 561.157,-774 561.157,-774 555.157,-774 549.157,-768 549.157,-762 549.157,-762 549.157,-750 549.157,-750 549.157,-744 555.157,-738 561.157,-738 561.157,-738 650.843,-738 650.843,-738 656.843,-738 662.843,-744 662.843,-750 662.843,-750 662.843,-762 662.843,-762 662.843,-768 656.843,-774 650.843,-774"/>
<text text-anchor="middle" x="606" y="-751.8" font-family="Times,serif" font-size="14.00">309 args = [&#39;q55&#39;]</text>
</g>
<!-- v_1_59&#45;&gt;v_1_57 -->
<g id="edge2" class="edge"><title>v_1_59&#45;&gt;v_1_57</title>
<path fill="none" stroke="black" d="M662.91,-772.622C700.201,-782.859 749.257,-796.325 789.22,-807.296"/>
<polygon fill="black" stroke="black" points="788.339,-810.683 798.909,-809.955 790.192,-803.933 788.339,-810.683"/>
</g>
<!-- v_1_43 -->
<g id="node3" class="node"><title>v_1_43</title>
<polygon fill="#ccffcc" stroke="black" points="1614.39,-846 1481.61,-846 1481.61,-810 1614.39,-810 1614.39,-846"/>
<text text-anchor="middle" x="1548" y="-823.8" font-family="Times,serif" font-size="14.00">293 __init__ = None</text>
</g>
<!-- v_1_44 -->
<g id="node4" class="node"><title>v_1_44</title>
<path fill="#ffffcc" stroke="black" d="M1451.25,-846C1451.25,-846 1098.75,-846 1098.75,-846 1092.75,-846 1086.75,-840 1086.75,-834 1086.75,-834 1086.75,-822 1086.75,-822 1086.75,-816 1092.75,-810 1098.75,-810 1098.75,-810 1451.25,-810 1451.25,-810 1457.25,-810 1463.25,-816 1463.25,-822 1463.25,-822 1463.25,-834 1463.25,-834 1463.25,-840 1457.25,-846 1451.25,-846"/>
<text text-anchor="middle" x="1275" y="-823.8" font-family="Times,serif" font-size="14.00">293 parser = &lt;optparse.OptionParser object at 0x7f2aa3d8f048&gt;</text>
</g>
<!-- v_1_44&#45;&gt;v_1_43 -->
<g id="edge35" class="edge"><title>v_1_44&#45;&gt;v_1_43</title>
<path fill="none" stroke="black" d="M1463.49,-828C1466.14,-828 1468.78,-828 1471.43,-828"/>
<polygon fill="black" stroke="black" points="1471.64,-831.5 1481.64,-828 1471.64,-824.5 1471.64,-831.5"/>
</g>
<!-- v_1_57&#45;&gt;v_1_44 -->
<g id="edge27" class="edge"><title>v_1_57&#45;&gt;v_1_44</title>
<path fill="none" stroke="black" stroke-dasharray="5,2" d="M1068.81,-828C1071.3,-828 1073.79,-828 1076.28,-828"/>
<polygon fill="black" stroke="black" points="1076.53,-831.5 1086.53,-828 1076.53,-824.5 1076.53,-831.5"/>
</g>
<!-- v_13_172 -->
<g id="node6" class="node"><title>v_13_172</title>
<path fill="#ffffcc" stroke="black" d="M1178.65,-414C1178.65,-414 891.353,-414 891.353,-414 885.353,-414 879.353,-408 879.353,-402 879.353,-402 879.353,-390 879.353,-390 879.353,-384 885.353,-378 891.353,-378 891.353,-378 1178.65,-378 1178.65,-378 1184.65,-378 1190.65,-384 1190.65,-390 1190.65,-390 1190.65,-402 1190.65,-402 1190.65,-408 1184.65,-414 1178.65,-414"/>
<text text-anchor="middle" x="1035" y="-390" font-family="Times,serif" font-size="20.00">73 energies = [10000, 11000, 12000]</text>
</g>
<!-- v_13_171 -->
<g id="node23" class="node"><title>v_13_171</title>
<polygon fill="#ccffcc" stroke="black" points="1054.89,-486 493.111,-486 493.111,-450 1054.89,-450 1054.89,-486"/>
<text text-anchor="middle" x="774" y="-462" font-family="Times,serif" font-size="20.00">73 calculate_strategy = (&#39;DRT240&#39;, None, 2, [10000, 11000, 12000])</text>
</g>
<!-- v_13_172&#45;&gt;v_13_171 -->
<g id="edge22" class="edge"><title>v_13_172&#45;&gt;v_13_171</title>
<path fill="none" stroke="black" d="M971.486,-414.034C934.067,-424.07 886.567,-436.81 847.53,-447.279"/>
<polygon fill="black" stroke="black" points="846.551,-443.918 837.799,-449.889 848.364,-450.679 846.551,-443.918"/>
</g>
<!-- v_13_174 -->
<g id="node7" class="node"><title>v_13_174</title>
<path fill="#ffffcc" stroke="black" d="M849.487,-414C849.487,-414 698.513,-414 698.513,-414 692.513,-414 686.513,-408 686.513,-402 686.513,-402 686.513,-390 686.513,-390 686.513,-384 692.513,-378 698.513,-378 698.513,-378 849.487,-378 849.487,-378 855.487,-378 861.487,-384 861.487,-390 861.487,-390 861.487,-402 861.487,-402 861.487,-408 855.487,-414 849.487,-414"/>
<text text-anchor="middle" x="774" y="-390" font-family="Times,serif" font-size="20.00">73 num_images = 2</text>
</g>
<!-- v_13_174&#45;&gt;v_13_171 -->
<g id="edge23" class="edge"><title>v_13_174&#45;&gt;v_13_171</title>
<path fill="none" stroke="black" d="M774,-414.303C774,-422.017 774,-431.288 774,-439.888"/>
<polygon fill="black" stroke="black" points="770.5,-439.896 774,-449.896 777.5,-439.896 770.5,-439.896"/>
</g>
<!-- v_13_182 -->
<g id="node8" class="node"><title>v_13_182</title>
<path fill="#ffffcc" stroke="black" d="M344.002,-414C344.002,-414 137.998,-414 137.998,-414 131.998,-414 125.998,-408 125.998,-402 125.998,-402 125.998,-390 125.998,-390 125.998,-384 131.998,-378 137.998,-378 137.998,-378 344.002,-378 344.002,-378 350.002,-378 356.002,-384 356.002,-390 356.002,-390 356.002,-402 356.002,-402 356.002,-408 350.002,-414 344.002,-414"/>
<text text-anchor="middle" x="241" y="-390" font-family="Times,serif" font-size="20.00">108 sample_id = &#39;DRT240&#39;</text>
</g>
<!-- v_13_173 -->
<g id="node9" class="node"><title>v_13_173</title>
<path fill="#ffffcc" stroke="black" d="M656.387,-414C656.387,-414 405.613,-414 405.613,-414 399.613,-414 393.613,-408 393.613,-402 393.613,-402 393.613,-390 393.613,-390 393.613,-384 399.613,-378 405.613,-378 405.613,-378 656.387,-378 656.387,-378 662.387,-378 668.387,-384 668.387,-390 668.387,-390 668.387,-402 668.387,-402 668.387,-408 662.387,-414 656.387,-414"/>
<text text-anchor="middle" x="531" y="-390" font-family="Times,serif" font-size="20.00">73 accepted_sample = &#39;DRT240&#39;</text>
</g>
<!-- v_13_182&#45;&gt;v_13_173 -->
<g id="edge29" class="edge"><title>v_13_182&#45;&gt;v_13_173</title>
<path fill="none" stroke="black" d="M356.264,-396C365.273,-396 374.282,-396 383.292,-396"/>
<polygon fill="black" stroke="black" points="383.463,-399.5 393.463,-396 383.463,-392.5 383.463,-399.5"/>
</g>
<!-- v_13_173&#45;&gt;v_13_171 -->
<g id="edge1" class="edge"><title>v_13_173&#45;&gt;v_13_171</title>
<path fill="none" stroke="black" d="M590.134,-414.034C624.677,-423.985 668.447,-436.594 704.615,-447.013"/>
<polygon fill="black" stroke="black" points="704.023,-450.484 714.601,-449.889 705.961,-443.758 704.023,-450.484"/>
</g>
<!-- v_13_65 -->
<g id="node10" class="node"><title>v_13_65</title>
<path fill="#ffffcc" stroke="black" d="M456.731,-702C456.731,-702 293.269,-702 293.269,-702 287.269,-702 281.269,-696 281.269,-690 281.269,-690 281.269,-678 281.269,-678 281.269,-672 287.269,-666 293.269,-666 293.269,-666 456.731,-666 456.731,-666 462.731,-666 468.731,-672 468.731,-678 468.731,-678 468.731,-690 468.731,-690 468.731,-696 462.731,-702 456.731,-702"/>
<text text-anchor="middle" x="375" y="-678" font-family="Times,serif" font-size="20.00">29 cassette_id = &#39;q55&#39;</text>
</g>
<!-- v_13_65&#45;&gt;v_1_59 -->
<g id="edge12" class="edge"><title>v_13_65&#45;&gt;v_1_59</title>
<path fill="none" stroke="black" d="M431.214,-702.034C463.91,-711.943 505.304,-724.486 539.601,-734.879"/>
<polygon fill="black" stroke="black" points="538.949,-738.339 549.534,-737.889 540.979,-731.639 538.949,-738.339"/>
</g>
<!-- v_13_116 -->
<g id="node11" class="node"><title>v_13_116</title>
<polygon fill="#ccffcc" stroke="black" points="1089.22,-702 970.783,-702 970.783,-666 1089.22,-666 1089.22,-702"/>
<text text-anchor="middle" x="1030" y="-678" font-family="Times,serif" font-size="20.00">55 str.format</text>
</g>
<!-- v_13_116&#45;&gt;v_13_65 -->
<g id="edge18" class="edge"><title>v_13_116&#45;&gt;v_13_65</title>
<path fill="none" stroke="black" stroke-dasharray="5,2" d="M999.265,-665.855C985.59,-658.793 968.99,-651.553 953,-648 851.91,-625.536 589.306,-631.962 487,-648 468.017,-650.976 447.861,-656.626 429.957,-662.584"/>
<polygon fill="black" stroke="black" points="428.586,-659.354 420.264,-665.91 430.858,-665.975 428.586,-659.354"/>
</g>
<!-- v_13_117 -->
<g id="node12" class="node"><title>v_13_117</title>
<path fill="#ffffcc" stroke="black" d="M941.067,-702C941.067,-702 498.933,-702 498.933,-702 492.933,-702 486.933,-696 486.933,-690 486.933,-690 486.933,-678 486.933,-678 486.933,-672 492.933,-666 498.933,-666 498.933,-666 941.067,-666 941.067,-666 947.067,-666 953.067,-672 953.067,-678 953.067,-678 953.067,-690 953.067,-690 953.067,-696 947.067,-702 941.067,-702"/>
<text text-anchor="middle" x="720" y="-678" font-family="Times,serif" font-size="20.00">55 sample_spreadsheet = &#39;cassette_q55_spreadsheet.csv&#39;</text>
</g>
<!-- v_13_117&#45;&gt;v_13_116 -->
<g id="edge25" class="edge"><title>v_13_117&#45;&gt;v_13_116</title>
<path fill="none" stroke="black" d="M953.105,-684C955.598,-684 958.09,-684 960.582,-684"/>
<polygon fill="black" stroke="black" points="960.827,-687.5 970.827,-684 960.827,-680.5 960.827,-687.5"/>
</g>
<!-- v_13_336 -->
<g id="node13" class="node"><title>v_13_336</title>
<polygon fill="#ccffcc" stroke="black" points="792.217,-198 663.783,-198 663.783,-162 792.217,-162 792.217,-198"/>
<text text-anchor="middle" x="728" y="-174" font-family="Times,serif" font-size="20.00">128 str.format</text>
</g>
<!-- v_13_336&#45;&gt;v_13_182 -->
<g id="edge10" class="edge"><title>v_13_336&#45;&gt;v_13_182</title>
<path fill="none" stroke="black" stroke-dasharray="5,2" d="M663.743,-196.436C607.755,-210.04 533.462,-228.522 520,-234 425.689,-272.375 324.405,-337.601 273.771,-372.074"/>
<polygon fill="black" stroke="black" points="271.482,-369.399 265.21,-377.938 275.438,-375.174 271.482,-369.399"/>
</g>
<!-- v_13_330 -->
<g id="node16" class="node"><title>v_13_330</title>
<path fill="#ffffcc" stroke="black" d="M692.61,-270C692.61,-270 541.39,-270 541.39,-270 535.39,-270 529.39,-264 529.39,-258 529.39,-258 529.39,-246 529.39,-246 529.39,-240 535.39,-234 541.39,-234 541.39,-234 692.61,-234 692.61,-234 698.61,-234 704.61,-240 704.61,-246 704.61,-246 704.61,-258 704.61,-258 704.61,-264 698.61,-270 692.61,-270"/>
<text text-anchor="middle" x="617" y="-246" font-family="Times,serif" font-size="20.00">109 energy = 11000</text>
</g>
<!-- v_13_336&#45;&gt;v_13_330 -->
<g id="edge32" class="edge"><title>v_13_336&#45;&gt;v_13_330</title>
<path fill="none" stroke="black" stroke-dasharray="5,2" d="M700.846,-198.124C686.467,-207.192 668.619,-218.448 653.09,-228.241"/>
<polygon fill="black" stroke="black" points="650.85,-225.516 644.258,-233.81 654.584,-231.436 650.85,-225.516"/>
</g>
<!-- v_13_331 -->
<g id="node17" class="node"><title>v_13_331</title>
<path fill="#ffffcc" stroke="black" d="M911.004,-270C911.004,-270 734.996,-270 734.996,-270 728.996,-270 722.996,-264 722.996,-258 722.996,-258 722.996,-246 722.996,-246 722.996,-240 728.996,-234 734.996,-234 734.996,-234 911.004,-234 911.004,-234 917.004,-234 923.004,-240 923.004,-246 923.004,-246 923.004,-258 923.004,-258 923.004,-264 917.004,-270 911.004,-270"/>
<text text-anchor="middle" x="823" y="-246" font-family="Times,serif" font-size="20.00">109 frame_number = 2</text>
</g>
<!-- v_13_336&#45;&gt;v_13_331 -->
<g id="edge20" class="edge"><title>v_13_336&#45;&gt;v_13_331</title>
<path fill="none" stroke="black" stroke-dasharray="5,2" d="M751.483,-198.303C763.563,-207.204 778.454,-218.177 791.516,-227.801"/>
<polygon fill="black" stroke="black" points="789.66,-230.781 799.787,-233.896 793.813,-225.146 789.66,-230.781"/>
</g>
<!-- v_13_337 -->
<g id="node14" class="node"><title>v_13_337</title>
<path fill="#ffffcc" stroke="black" d="M634.131,-198C634.131,-198 27.8691,-198 27.8691,-198 21.8691,-198 15.8691,-192 15.8691,-186 15.8691,-186 15.8691,-174 15.8691,-174 15.8691,-168 21.8691,-162 27.8691,-162 27.8691,-162 634.131,-162 634.131,-162 640.131,-162 646.131,-168 646.131,-174 646.131,-174 646.131,-186 646.131,-186 646.131,-192 640.131,-198 634.131,-198"/>
<text text-anchor="middle" x="331" y="-174" font-family="Times,serif" font-size="20.00">128 corrected_image_path = &#39;run/data/DRT240/DRT240_11000eV_002.img&#39;</text>
</g>
<!-- v_13_337&#45;&gt;v_13_336 -->
<g id="edge13" class="edge"><title>v_13_337&#45;&gt;v_13_336</title>
<path fill="none" stroke="black" d="M646.196,-180C648.668,-180 651.139,-180 653.611,-180"/>
<polygon fill="black" stroke="black" points="653.771,-183.5 663.771,-180 653.771,-176.5 653.771,-183.5"/>
</g>
<!-- v_13_333 -->
<g id="node15" class="node"><title>v_13_333</title>
<path fill="#ffffcc" stroke="black" d="M1375.99,-198C1375.99,-198 822.008,-198 822.008,-198 816.008,-198 810.008,-192 810.008,-186 810.008,-186 810.008,-174 810.008,-174 810.008,-168 816.008,-162 822.008,-162 822.008,-162 1375.99,-162 1375.99,-162 1381.99,-162 1387.99,-168 1387.99,-174 1387.99,-174 1387.99,-186 1387.99,-186 1387.99,-192 1381.99,-198 1375.99,-198"/>
<text text-anchor="middle" x="1099" y="-174" font-family="Times,serif" font-size="20.00">109 raw_image_path = &#39;run/raw/q55/DRT240/e11000/image_002.raw&#39;</text>
</g>
<!-- v_13_187 -->
<g id="node24" class="node"><title>v_13_187</title>
<polygon fill="#ccffcc" stroke="black" points="1031.24,-342 516.76,-342 516.76,-306 1031.24,-306 1031.24,-342"/>
<text text-anchor="middle" x="774" y="-318" font-family="Times,serif" font-size="20.00">109 collect_next_image(casset ... _{frame_number:03d}.raw&#39;)</text>
</g>
<!-- v_13_333&#45;&gt;v_13_187 -->
<g id="edge24" class="edge"><title>v_13_333&#45;&gt;v_13_187</title>
<path fill="none" stroke="black" d="M1070.46,-198.095C1037.77,-217.224 982.24,-248.364 932,-270 903.119,-282.438 870.282,-293.868 842.054,-302.903"/>
<polygon fill="black" stroke="black" points="840.754,-299.644 832.276,-305.997 842.866,-306.318 840.754,-299.644"/>
</g>
<!-- v_13_330&#45;&gt;v_13_187 -->
<g id="edge30" class="edge"><title>v_13_330&#45;&gt;v_13_187</title>
<path fill="none" stroke="black" d="M655.407,-270.124C676.869,-279.693 703.798,-291.7 726.568,-301.852"/>
<polygon fill="black" stroke="black" points="725.16,-305.056 735.718,-305.932 728.01,-298.663 725.16,-305.056"/>
</g>
<!-- v_13_331&#45;&gt;v_13_187 -->
<g id="edge9" class="edge"><title>v_13_331&#45;&gt;v_13_187</title>
<path fill="none" stroke="black" d="M810.888,-270.303C805.132,-278.526 798.138,-288.517 791.794,-297.579"/>
<polygon fill="black" stroke="black" points="788.84,-295.696 785.973,-305.896 794.575,-299.71 788.84,-295.696"/>
</g>
<!-- v_13_66 -->
<g id="node18" class="node"><title>v_13_66</title>
<path fill="#ffffcc" stroke="black" d="M1133.53,-558C1133.53,-558 894.47,-558 894.47,-558 888.47,-558 882.47,-552 882.47,-546 882.47,-546 882.47,-534 882.47,-534 882.47,-528 888.47,-522 894.47,-522 894.47,-522 1133.53,-522 1133.53,-522 1139.53,-522 1145.53,-528 1145.53,-534 1145.53,-534 1145.53,-546 1145.53,-546 1145.53,-552 1139.53,-558 1133.53,-558"/>
<text text-anchor="middle" x="1014" y="-534" font-family="Times,serif" font-size="20.00">29 sample_score_cutoff = 12.0</text>
</g>
<!-- v_13_66&#45;&gt;v_1_58 -->
<g id="edge34" class="edge"><title>v_13_66&#45;&gt;v_1_58</title>
<path fill="none" stroke="black" d="M1028.87,-558.367C1047.82,-581.42 1080.24,-624.115 1098,-666 1106.36,-685.728 1111.2,-709.531 1113.9,-727.556"/>
<polygon fill="black" stroke="black" points="1110.46,-728.25 1115.28,-737.684 1117.39,-727.303 1110.46,-728.25"/>
</g>
<!-- v_13_67 -->
<g id="node19" class="node"><title>v_13_67</title>
<path fill="#ffffcc" stroke="black" d="M1375.88,-558C1375.88,-558 1176.12,-558 1176.12,-558 1170.12,-558 1164.12,-552 1164.12,-546 1164.12,-546 1164.12,-534 1164.12,-534 1164.12,-528 1170.12,-522 1176.12,-522 1176.12,-522 1375.88,-522 1375.88,-522 1381.88,-522 1387.88,-528 1387.88,-534 1387.88,-534 1387.88,-546 1387.88,-546 1387.88,-552 1381.88,-558 1375.88,-558"/>
<text text-anchor="middle" x="1276" y="-534" font-family="Times,serif" font-size="20.00">29 data_redundancy = 0.0</text>
</g>
<!-- v_13_67&#45;&gt;v_1_58 -->
<g id="edge33" class="edge"><title>v_13_67&#45;&gt;v_1_58</title>
<path fill="none" stroke="black" d="M1263.26,-558.151C1235.35,-595.716 1168.69,-685.425 1135.89,-729.574"/>
<polygon fill="black" stroke="black" points="1132.96,-727.653 1129.8,-737.768 1138.58,-731.828 1132.96,-727.653"/>
</g>
<!-- v_13_121 -->
<g id="node20" class="node"><title>v_13_121</title>
<polygon fill="#ccffcc" stroke="black" points="898.44,-630 541.56,-630 541.56,-594 898.44,-594 898.44,-630"/>
<text text-anchor="middle" x="720" y="-606" font-family="Times,serif" font-size="20.00">56 spreadsheet_rows(sample_spreadsheet)</text>
</g>
<!-- v_13_121&#45;&gt;v_13_117 -->
<g id="edge15" class="edge"><title>v_13_121&#45;&gt;v_13_117</title>
<path fill="none" stroke="black" stroke-dasharray="5,2" d="M720,-630.303C720,-638.017 720,-647.288 720,-655.888"/>
<polygon fill="black" stroke="black" points="716.5,-655.896 720,-665.896 723.5,-655.896 716.5,-655.896"/>
</g>
<!-- v_13_167 -->
<g id="node21" class="node"><title>v_13_167</title>
<path fill="#ffffcc" stroke="black" d="M630.256,-558C630.256,-558 405.744,-558 405.744,-558 399.744,-558 393.744,-552 393.744,-546 393.744,-546 393.744,-534 393.744,-534 393.744,-528 399.744,-522 405.744,-522 405.744,-522 630.256,-522 630.256,-522 636.256,-522 642.256,-528 642.256,-534 642.256,-534 642.256,-546 642.256,-546 642.256,-552 636.256,-558 630.256,-558"/>
<text text-anchor="middle" x="518" y="-534" font-family="Times,serif" font-size="20.00">56 sample_name = &#39;DRT240&#39;</text>
</g>
<!-- v_13_167&#45;&gt;v_13_121 -->
<g id="edge16" class="edge"><title>v_13_167&#45;&gt;v_13_121</title>
<path fill="none" stroke="black" d="M567.156,-558.034C595.503,-567.858 631.325,-580.271 661.163,-590.611"/>
<polygon fill="black" stroke="black" points="660.028,-593.922 670.623,-593.889 662.32,-587.308 660.028,-593.922"/>
</g>
<!-- v_13_168 -->
<g id="node22" class="node"><title>v_13_168</title>
<path fill="#ffffcc" stroke="black" d="M852.477,-558C852.477,-558 671.523,-558 671.523,-558 665.523,-558 659.523,-552 659.523,-546 659.523,-546 659.523,-534 659.523,-534 659.523,-528 665.523,-522 671.523,-522 671.523,-522 852.477,-522 852.477,-522 858.477,-522 864.477,-528 864.477,-534 864.477,-534 864.477,-546 864.477,-546 864.477,-552 858.477,-558 852.477,-558"/>
<text text-anchor="middle" x="762" y="-534" font-family="Times,serif" font-size="20.00">56 sample_quality = 45</text>
</g>
<!-- v_13_168&#45;&gt;v_13_121 -->
<g id="edge21" class="edge"><title>v_13_168&#45;&gt;v_13_121</title>
<path fill="none" stroke="black" d="M751.618,-558.303C746.735,-566.441 740.813,-576.311 735.421,-585.299"/>
<polygon fill="black" stroke="black" points="732.406,-583.52 730.263,-593.896 738.409,-587.121 732.406,-583.52"/>
</g>
<!-- v_13_171&#45;&gt;v_13_66 -->
<g id="edge4" class="edge"><title>v_13_171&#45;&gt;v_13_66</title>
<path fill="none" stroke="black" stroke-dasharray="5,2" d="M832.404,-486.034C866.52,-495.985 909.75,-508.594 945.472,-519.013"/>
<polygon fill="black" stroke="black" points="944.754,-522.449 955.334,-521.889 946.714,-515.729 944.754,-522.449"/>
</g>
<!-- v_13_171&#45;&gt;v_13_67 -->
<g id="edge19" class="edge"><title>v_13_171&#45;&gt;v_13_67</title>
<path fill="none" stroke="black" stroke-dasharray="5,2" d="M896.69,-486.024C968.741,-496.032 1061.87,-508.986 1153.88,-521.844"/>
<polygon fill="black" stroke="black" points="1153.54,-525.331 1163.93,-523.249 1154.51,-518.399 1153.54,-525.331"/>
</g>
<!-- v_13_171&#45;&gt;v_13_167 -->
<g id="edge6" class="edge"><title>v_13_171&#45;&gt;v_13_167</title>
<path fill="none" stroke="black" stroke-dasharray="5,2" d="M711.703,-486.034C675.156,-496.028 628.806,-508.702 590.609,-519.146"/>
<polygon fill="black" stroke="black" points="589.299,-515.876 580.577,-521.889 591.146,-522.628 589.299,-515.876"/>
</g>
<!-- v_13_171&#45;&gt;v_13_168 -->
<g id="edge3" class="edge"><title>v_13_171&#45;&gt;v_13_168</title>
<path fill="none" stroke="black" stroke-dasharray="5,2" d="M771.034,-486.303C769.711,-494.017 768.122,-503.288 766.648,-511.888"/>
<polygon fill="black" stroke="black" points="763.172,-511.448 764.932,-521.896 770.072,-512.631 763.172,-511.448"/>
</g>
<!-- v_13_187&#45;&gt;v_13_172 -->
<g id="edge26" class="edge"><title>v_13_187&#45;&gt;v_13_172</title>
<path fill="none" stroke="black" stroke-dasharray="5,2" d="M837.514,-342.034C874.933,-352.07 922.433,-364.81 961.47,-375.279"/>
<polygon fill="black" stroke="black" points="960.636,-378.679 971.201,-377.889 962.449,-371.918 960.636,-378.679"/>
</g>
<!-- v_13_187&#45;&gt;v_13_174 -->
<g id="edge14" class="edge"><title>v_13_187&#45;&gt;v_13_174</title>
<path fill="none" stroke="black" stroke-dasharray="5,2" d="M774,-342.303C774,-350.017 774,-359.288 774,-367.888"/>
<polygon fill="black" stroke="black" points="770.5,-367.896 774,-377.896 777.5,-367.896 770.5,-367.896"/>
</g>
<!-- v_13_187&#45;&gt;v_13_182 -->
<g id="edge17" class="edge"><title>v_13_187&#45;&gt;v_13_182</title>
<path fill="none" stroke="black" stroke-dasharray="5,2" d="M643.908,-342.047C564.724,-352.428 461.528,-365.965 370,-378 368.88,-378.147 367.755,-378.295 366.625,-378.444"/>
<polygon fill="black" stroke="black" points="365.799,-375.022 356.341,-379.797 366.712,-381.962 365.799,-375.022"/>
</g>
<!-- v_13_187&#45;&gt;v_13_65 -->
<g id="edge28" class="edge"><title>v_13_187&#45;&gt;v_13_65</title>
<path fill="none" stroke="black" stroke-dasharray="5,2" d="M516.585,-336.033C457.428,-343.838 405.747,-356.759 385,-378 357.187,-406.475 375,-427.196 375,-467 375,-467 375,-467 375,-541 375,-581.004 375,-627.347 375,-655.92"/>
<polygon fill="black" stroke="black" points="371.5,-655.951 375,-665.951 378.5,-655.951 371.5,-655.951"/>
</g>
<!-- v_13_340 -->
<g id="node25" class="node"><title>v_13_340</title>
<polygon fill="#ccffcc" stroke="black" points="1240.22,-126 957.779,-126 957.779,-90 1240.22,-90 1240.22,-126"/>
<text text-anchor="middle" x="1099" y="-102" font-family="Times,serif" font-size="20.00">129 transform_image = (980, 10)</text>
</g>
<!-- v_13_340&#45;&gt;v_13_337 -->
<g id="edge5" class="edge"><title>v_13_340&#45;&gt;v_13_337</title>
<path fill="none" stroke="black" stroke-dasharray="5,2" d="M957.69,-121.88C837.023,-132.878 662.18,-148.814 527.815,-161.061"/>
<polygon fill="black" stroke="black" points="527.446,-157.58 517.805,-161.973 528.082,-164.551 527.446,-157.58"/>
</g>
<!-- v_13_340&#45;&gt;v_13_333 -->
<g id="edge11" class="edge"><title>v_13_340&#45;&gt;v_13_333</title>
<path fill="none" stroke="black" stroke-dasharray="5,2" d="M1099,-126.303C1099,-134.017 1099,-143.288 1099,-151.888"/>
<polygon fill="black" stroke="black" points="1095.5,-151.896 1099,-161.896 1102.5,-151.896 1095.5,-151.896"/>
</g>
<!-- a_8 -->
<g id="node26" class="node"><title>a_8</title>
<path fill="white" stroke="black" d="M1531.63,-198C1531.63,-198 1418.37,-198 1418.37,-198 1412.37,-198 1406.37,-192 1406.37,-186 1406.37,-186 1406.37,-174 1406.37,-174 1406.37,-168 1412.37,-162 1418.37,-162 1418.37,-162 1531.63,-162 1531.63,-162 1537.63,-162 1543.63,-168 1543.63,-174 1543.63,-174 1543.63,-186 1543.63,-186 1543.63,-192 1537.63,-198 1531.63,-198"/>
<text text-anchor="middle" x="1475" y="-174" font-family="Times,serif" font-size="20.00">calibration.img</text>
</g>
<!-- v_13_340&#45;&gt;a_8 -->
<g id="edge7" class="edge"><title>v_13_340&#45;&gt;a_8</title>
<path fill="none" stroke="black" stroke-dasharray="5,2" d="M1203.02,-126.034C1258.38,-135.407 1327.85,-147.651 1396.28,-161.281"/>
<polygon fill="black" stroke="black" points="1395.87,-164.769 1406.36,-163.302 1397.25,-157.906 1395.87,-164.769"/>
</g>
<!-- a_24 -->
<g id="node27" class="node"><title>a_24</title>
<path fill="white" stroke="black" d="M1281.46,-36C1281.46,-36 916.541,-36 916.541,-36 910.541,-36 904.541,-30 904.541,-24 904.541,-24 904.541,-12 904.541,-12 904.541,-6 910.541,-0 916.541,-0 916.541,-0 1281.46,-0 1281.46,-0 1287.46,-0 1293.46,-6 1293.46,-12 1293.46,-12 1293.46,-24 1293.46,-24 1293.46,-30 1287.46,-36 1281.46,-36"/>
<text text-anchor="middle" x="1099" y="-12" font-family="Times,serif" font-size="20.00">run/data/DRT240/DRT240_11000eV_002.img</text>
</g>
<!-- a_24&#45;&gt;v_13_340 -->
<g id="edge31" class="edge"><title>a_24&#45;&gt;v_13_340</title>
<path fill="none" stroke="black" stroke-dasharray="5,2" d="M1099,-36.386C1099,-48.7597 1099,-65.6314 1099,-79.7802"/>
<polygon fill="black" stroke="black" points="1095.5,-79.9496 1099,-89.9496 1102.5,-79.9496 1095.5,-79.9496"/>
</g>
</g>
</svg>
